<mxfile host="Electron" modified="2023-12-28T09:54:24.632Z" agent="Mozilla/5.0 (Windows NT 10.0; Win64; x64) AppleWebKit/537.36 (KHTML, like Gecko) draw.io/22.1.15 Chrome/120.0.6099.109 Electron/28.1.0 Safari/537.36" etag="1554dQhJrxcC3oXJ3N41" version="22.1.15" type="device">
  <diagram name="第 1 页" id="EcOrVeslsOedmBi8yv9_">
    <mxGraphModel dx="863" dy="525" grid="1" gridSize="10" guides="1" tooltips="1" connect="1" arrows="1" fold="1" page="1" pageScale="1" pageWidth="827" pageHeight="1169" math="0" shadow="0">
      <root>
        <mxCell id="0" />
        <mxCell id="1" parent="0" />
        <mxCell id="FdFCths4Q_ehckhinnfc-1" value="用户" style="rounded=0;whiteSpace=wrap;html=1;" parent="1" vertex="1">
          <mxGeometry x="324" y="80" width="116" height="50" as="geometry" />
        </mxCell>
        <mxCell id="FdFCths4Q_ehckhinnfc-7" value="" style="endArrow=none;html=1;rounded=0;exitX=0.5;exitY=0;exitDx=0;exitDy=0;entryX=0.422;entryY=0.97;entryDx=0;entryDy=0;entryPerimeter=0;" parent="1" edge="1" target="FdFCths4Q_ehckhinnfc-1">
          <mxGeometry width="50" height="50" relative="1" as="geometry">
            <mxPoint x="360" y="200" as="sourcePoint" />
            <mxPoint x="390" y="130" as="targetPoint" />
          </mxGeometry>
        </mxCell>
        <mxCell id="FdFCths4Q_ehckhinnfc-8" value="" style="endArrow=none;html=1;rounded=0;entryX=0.33;entryY=1.023;entryDx=0;entryDy=0;entryPerimeter=0;" parent="1" edge="1" target="FdFCths4Q_ehckhinnfc-1">
          <mxGeometry width="50" height="50" relative="1" as="geometry">
            <mxPoint x="284" y="180" as="sourcePoint" />
            <mxPoint x="330" y="130" as="targetPoint" />
          </mxGeometry>
        </mxCell>
        <mxCell id="FdFCths4Q_ehckhinnfc-10" value="" style="endArrow=none;html=1;rounded=0;entryX=0.5;entryY=1;entryDx=0;entryDy=0;exitX=0.5;exitY=0;exitDx=0;exitDy=0;" parent="1" source="7lX8ql4wyFsdn1RMVumZ-3" edge="1" target="FdFCths4Q_ehckhinnfc-1">
          <mxGeometry width="50" height="50" relative="1" as="geometry">
            <mxPoint x="440" y="200" as="sourcePoint" />
            <mxPoint x="474" y="130" as="targetPoint" />
          </mxGeometry>
        </mxCell>
        <mxCell id="7lX8ql4wyFsdn1RMVumZ-1" value="用户名" style="ellipse;whiteSpace=wrap;html=1;" vertex="1" parent="1">
          <mxGeometry x="200" y="170" width="90" height="40" as="geometry" />
        </mxCell>
        <mxCell id="7lX8ql4wyFsdn1RMVumZ-2" value="用户编号" style="ellipse;whiteSpace=wrap;html=1;" vertex="1" parent="1">
          <mxGeometry x="300" y="200" width="80" height="40" as="geometry" />
        </mxCell>
        <mxCell id="7lX8ql4wyFsdn1RMVumZ-3" value="邮箱" style="ellipse;whiteSpace=wrap;html=1;" vertex="1" parent="1">
          <mxGeometry x="390" y="200" width="70" height="30" as="geometry" />
        </mxCell>
        <mxCell id="7lX8ql4wyFsdn1RMVumZ-4" value="年龄" style="ellipse;whiteSpace=wrap;html=1;" vertex="1" parent="1">
          <mxGeometry x="480" y="190" width="70" height="40" as="geometry" />
        </mxCell>
        <mxCell id="7lX8ql4wyFsdn1RMVumZ-5" value="" style="endArrow=none;html=1;rounded=0;" edge="1" parent="1" target="7lX8ql4wyFsdn1RMVumZ-4">
          <mxGeometry width="50" height="50" relative="1" as="geometry">
            <mxPoint x="393" y="131" as="sourcePoint" />
            <mxPoint x="430" y="250" as="targetPoint" />
          </mxGeometry>
        </mxCell>
      </root>
    </mxGraphModel>
  </diagram>
</mxfile>
